<svg width="20" height="19" viewBox="0 0 20 19" fill="none" xmlns="http://www.w3.org/2000/svg">
<path d="M14 0H4.16999C2.73999 0 1.49999 1.02 1.21999 2.43L0.0499913 8.43C-0.100009 9.22 0.0499904 10.02 0.50999 10.68C0.95999 11.35 1.63999 11.79 2.41999 11.95C2.60999 11.99 2.79999 12 2.99999 12H7.99999V16C7.99999 17.65 9.34999 19 11 19C11.42 19 11.79 18.74 11.94 18.35L14.43 11.71C14.81 10.7 15 9.63 15 8.55V1C15 0.45 14.55 0 14 0ZM13 8.55C13 9.39 12.85 10.22 12.55 11.01L10.38 16.79C10.15 16.61 9.98999 16.32 9.98999 16V11C9.98999 10.45 9.53999 10 8.98999 10H2.98999C2.92999 10 2.86999 10 2.79999 9.98C2.53999 9.93 2.30999 9.78 2.15999 9.56C2.00999 9.34 1.95999 9.07 2.00999 8.81L3.17999 2.81C3.26999 2.34 3.67999 2 4.15999 2H12.99V8.55H13ZM20 2V8C20 9.1 19.1 10 18 10H17C16.45 10 16 9.55 16 9V1C16 0.45 16.45 0 17 0H18C19.1 0 20 0.9 20 2Z" fill="white"/>
</svg>
