<svg width="20" height="19" viewBox="0 0 20 19" fill="none" xmlns="http://www.w3.org/2000/svg">
<path d="M17.58 7.06001C17.39 7.02001 17.19 7.01001 17 7.01001H12V3.01001C12 1.36001 10.65 0.0100098 9 0.0100098C8.58 0.0100098 8.21 0.27001 8.06 0.66001L5.57 7.30001C5.19 8.31001 5 9.38001 5 10.46V18.01C5 18.56 5.45 19.01 6 19.01H15.83C17.26 19.01 18.5 17.99 18.77 16.58L19.94 10.58C20.09 9.79001 19.94 8.99001 19.48 8.33001C19.03 7.66001 18.35 7.22001 17.57 7.06001H17.58ZM16.82 16.19C16.73 16.66 16.32 17 15.84 17H7.01V10.45C7.01 9.61001 7.16 8.78001 7.46 7.99001L9.63 2.21001C9.86 2.39001 10.02 2.68001 10.02 3.00001V8.00001C10.02 8.55001 10.47 9.00001 11.02 9.00001H17.02C17.08 9.00001 17.14 9.00001 17.21 9.02001C17.47 9.07001 17.7 9.22001 17.85 9.44001C18 9.66001 18.05 9.93001 18 10.19L16.83 16.19H16.82ZM4 10V18C4 18.55 3.55 19 3 19H2C0.9 19 0 18.1 0 17V11C0 9.90001 0.9 9.00001 2 9.00001H3C3.55 9.00001 4 9.45001 4 10Z" fill="white"/>
</svg>
